<svg xmlns="http://www.w3.org/2000/svg" xmlns:xlink="http://www.w3.org/1999/xlink" width="48" zoomAndPan="magnify" viewBox="0 0 36 36.000001" height="48" preserveAspectRatio="xMidYMid meet" version="1.0"><defs><clipPath id="2f2ef4b7ef"><path d="M 1.324219 0.839844 L 34.894531 0.839844 L 34.894531 34.40625 L 1.324219 34.40625 Z M 1.324219 0.839844 " clip-rule="nonzero"/></clipPath></defs><g clip-path="url(#2f2ef4b7ef)"><path fill="#000000" d="M 26.40625 0.839844 L 23.925781 0.839844 L 27.382812 6.890625 L 34.535156 6.890625 C 33.484375 3.394531 30.242188 0.839844 26.40625 0.839844 Z M 24.4375 21.78125 C 24.4375 21.191406 24.121094 20.644531 23.613281 20.351562 L 15.359375 15.585938 C 14.847656 15.289062 14.21875 15.289062 13.707031 15.585938 C 13.195312 15.878906 12.882812 16.425781 12.882812 17.015625 L 12.882812 26.546875 C 12.882812 27.136719 13.195312 27.683594 13.707031 27.976562 C 13.960938 28.125 14.246094 28.199219 14.53125 28.199219 C 14.816406 28.199219 15.101562 28.125 15.359375 27.976562 L 23.613281 23.210938 C 24.121094 22.917969 24.4375 22.371094 24.4375 21.78125 Z M 34.894531 25.921875 C 34.894531 30.601562 31.085938 34.40625 26.40625 34.40625 L 9.8125 34.40625 C 5.132812 34.40625 1.324219 30.601562 1.324219 25.921875 L 1.324219 10.195312 L 34.894531 10.195312 Z M 20.15625 0.839844 L 12.324219 0.839844 L 15.78125 6.890625 L 23.582031 6.890625 L 20.277344 1.109375 C 20.226562 1.019531 20.1875 0.929688 20.15625 0.839844 Z M 8.597656 0.9375 C 8.621094 0.992188 8.640625 1.050781 8.675781 1.109375 L 11.980469 6.890625 L 1.683594 6.890625 C 2.621094 3.773438 5.308594 1.410156 8.597656 0.9375 " fill-opacity="1" fill-rule="nonzero"/></g></svg>