<svg xmlns="http://www.w3.org/2000/svg" xmlns:xlink="http://www.w3.org/1999/xlink" width="48" zoomAndPan="magnify" viewBox="0 0 36 36.000001" height="48" preserveAspectRatio="xMidYMid meet" version="1.0"><defs><clipPath id="4cc432306e"><path d="M 1.289062 0.800781 L 34.855469 0.800781 L 34.855469 34.371094 L 1.289062 34.371094 Z M 1.289062 0.800781 " clip-rule="nonzero"/></clipPath></defs><g clip-path="url(#4cc432306e)"><path fill="#000000" d="M 25.714844 0.804688 L 10.429688 0.804688 C 5.390625 0.804688 1.289062 4.902344 1.289062 9.945312 L 1.289062 25.230469 C 1.289062 30.273438 5.390625 34.371094 10.429688 34.371094 L 25.714844 34.371094 C 30.757812 34.371094 34.855469 30.273438 34.855469 25.230469 L 34.855469 9.945312 C 34.855469 4.902344 30.757812 0.804688 25.714844 0.804688 Z M 25.714844 3.386719 C 29.296875 3.386719 32.207031 6.273438 32.265625 9.839844 L 26.570312 9.839844 L 22.878906 3.386719 Z M 19.90625 3.386719 L 23.59375 9.839844 L 16.238281 9.839844 L 12.550781 3.386719 Z M 9.625 3.46875 L 13.265625 9.839844 L 3.882812 9.839844 C 3.933594 6.546875 6.425781 3.867188 9.625 3.46875 Z M 32.273438 25.230469 C 32.273438 28.847656 29.332031 31.789062 25.714844 31.789062 L 10.429688 31.789062 C 6.8125 31.789062 3.871094 28.847656 3.871094 25.230469 L 3.871094 12.421875 L 32.273438 12.421875 Z M 14.40625 25.300781 L 14.40625 17.851562 C 14.40625 16.566406 15.835938 15.796875 16.910156 16.503906 L 22.554688 20.226562 C 23.523438 20.867188 23.523438 22.285156 22.554688 22.925781 L 16.910156 26.648438 C 15.835938 27.355469 14.40625 26.585938 14.40625 25.300781 Z M 14.40625 25.300781 " fill-opacity="1" fill-rule="nonzero"/></g></svg>