<?xml version="1.0" encoding="utf-8"?>
<!-- Generator: Adobe Illustrator 25.2.0, SVG Export Plug-In . SVG Version: 6.00 Build 0)  -->
<svg version="1.1" id="Layer_1" xmlns="http://www.w3.org/2000/svg" xmlns:xlink="http://www.w3.org/1999/xlink" x="0px" y="0px"
	 viewBox="0 0 800 800" style="enable-background:new 0 0 800 800;" xml:space="preserve">
<style type="text/css">
	.st0{fill:#0F1729;}
</style>
<path class="st0" d="M400,111.4c2.9,0,5.8,0.4,8.7,1.1c1.6,0.4,4.6,1.3,12,6.9c6.9,5.2,15.3,12.7,28.5,24.4l174.7,155.2
	c21.4,19,27.5,24.8,31.7,31.1c4.1,6.1,7.1,12.8,8.9,19.9c1.9,7.4,2.2,15.7,2.2,44.4v166.7c0,29,0,64.6,0,64.6v61
	c0,1.1-0.9,2.1-2.1,2.1h-60.7h-67.3c-1.8,0-3.2-1.4-3.2-3.2v-95.4c0-72.5-57.3-132.8-129.8-134.7c-1.2,0-2.4,0-3.6,0
	c-73.6,0-133.3,59.7-133.3,133.3v96.8c0,1.8-1.4,3.2-3.2,3.2h-66h-61.1c-1.1,0-2.1-0.9-2.1-2l-0.9-61.2c0,0,0-35.4,0-64.4V394.4
	c0-28.6,0.3-37,2.2-44.4c1.9-7.1,4.9-13.8,8.9-19.9c4.2-6.3,10.3-12.1,31.7-31.1l174.7-155.2c13.1-11.7,21.6-19.2,28.5-24.4
	c7.4-5.6,10.4-6.5,12-6.9C394.2,111.7,397.1,111.4,400,111.4 M400,49.4c-8,0-15.9,1-23.7,2.9c-11.6,2.9-21.9,8.2-34.4,17.7
	c-8.7,6.6-17.9,14.7-32.2,27.5L135,252.6c-23.4,20.8-33.3,29.8-42.1,43.1c-7.9,11.8-13.7,24.8-17.3,38.5l0,0l0,0
	c-4.1,15.5-4.2,28.8-4.2,60.1v166.7v64.4v0.5l0,0.5l0.9,61.2c0.3,16.9,7,32.8,19.1,44.7c12.1,11.9,28,18.4,45,18.4h61.1h66
	c36,0,65.2-29.3,65.2-65.2v-96.8c0-19.1,7.4-37,20.9-50.4c13.5-13.5,31.4-20.9,50.4-20.9c0.6,0,1.3,0,1.9,0
	c38.3,1,69.4,33.6,69.4,72.7v95.4c0,36,29.3,65.2,65.2,65.2h67.3h60.7c35.3,0,64.1-28.7,64.1-64.1v-61v-64.6V394.4
	c0-31.3-0.2-44.6-4.2-60.1l0,0l0,0c-3.6-13.7-9.4-26.6-17.3-38.4c-8.9-13.3-18.7-22.3-42.1-43.1L490.3,97.4
	c-14.3-12.7-23.5-20.9-32.3-27.5c-12.5-9.4-22.8-14.7-34.4-17.6C415.9,50.3,408,49.4,400,49.4L400,49.4z"/>
</svg>
