<?xml version="1.0" encoding="utf-8"?>
<!-- Generator: Adobe Illustrator 25.2.0, SVG Export Plug-In . SVG Version: 6.00 Build 0)  -->
<svg version="1.1" id="Layer_1" xmlns="http://www.w3.org/2000/svg" xmlns:xlink="http://www.w3.org/1999/xlink" x="0px" y="0px"
	 viewBox="0 0 512 510.9" style="enable-background:new 0 0 512 510.9;" xml:space="preserve">
<g>
	<path d="M508,203.7c-15.3-80.5-59.6-139.6-132.8-176.4C329.5,4.3,280.6-3.5,230,1.4C159.9,8.2,100.5,36.9,55.1,91.6
		C24.8,128.1,7.6,170.4,1.9,217.5c-0.6,5.1-1.3,10.1-1.9,15.2v32c1.3,9.5,2.3,19.1,3.9,28.5c9.2,53.2,33.5,98.4,72.8,135.5
		c2.8,2.6,4.1,5.2,4.1,9c0.2,12.1,0.4,24.3,1.1,36.4c1,16.7,9.5,28.8,25.2,34.4c9.6,3.5,20,3.3,29.7-0.9c14.1-6,28-12.4,42.1-18.3
		c2.4-1,5.5-1.3,8-0.7c55.7,13.7,111,12.1,164.5-8.6c86.2-33.3,138.8-95.8,156.5-186.7c1.8-9.4,2.7-19,4-28.6v-32
		C510.7,223,509.8,213.3,508,203.7z M433.8,369.8c-32,44.7-76,71.3-129.5,82.4c-36.4,7.6-72.8,6.7-108.8-2.9
		c-11-2.9-21.3-2.1-31.5,2.7c-12.5,5.8-25.2,11.2-37.9,16.7c-1.2,0.5-2.4,0.9-5,1.9c0-7.8-0.4-15,0.1-22
		c1.6-22.1-5.8-39.2-22.4-55.1c-36-34.5-54.2-78.3-57.9-127.9c-4.1-55.6,10.1-105.8,45.7-149.2c31-37.8,71.2-61.2,118.9-71
		c64-13.1,124.5-4,178.9,33.4c49.8,34.2,78.1,82.2,85.7,142C476.9,275,465.7,325.2,433.8,369.8z"/>
	<path d="M399.2,193.8c-0.8,1.8-1.8,3.5-2.9,5.2c-22,34.9-44,69.8-66.1,104.6c-13.3,21.1-36,25-55.7,9.8
		c-16.8-13.1-33.7-26.1-50.5-39.2c-7.7-6-13.4-6-21.2,0c-23.2,17.9-46.4,35.8-69.7,53.6c-2,1.5-4,3-6.3,3.9
		c-4.3,1.8-8.2,0.4-11.4-2.7c-3.2-3.2-4.4-7-2.6-11.4c0.6-1.4,1.3-2.7,2.1-4c22.6-35.9,45.3-71.7,68-107.6
		c7.1-11.3,17.5-16.9,29.6-17.4c9.9,0.1,17.4,3.2,24.2,8.5c16.8,12.8,33.7,25.5,50.5,38.3c8.9,6.7,13.8,6.8,22.8,0
		c23-17.4,45.9-34.8,68.9-52.1c1.8-1.4,3.8-2.8,5.9-3.7c4.5-2,8.6-0.7,11.9,2.7C399.8,185.5,401,189.4,399.2,193.8z"/>
</g>
</svg>
