<?xml version="1.0" encoding="utf-8"?>
<!-- Generator: Adobe Illustrator 25.2.0, SVG Export Plug-In . SVG Version: 6.00 Build 0)  -->
<svg version="1.1" id="Layer_1" xmlns="http://www.w3.org/2000/svg" xmlns:xlink="http://www.w3.org/1999/xlink" x="0px" y="0px"
	 viewBox="0 0 800 800" style="enable-background:new 0 0 800 800;" xml:space="preserve">
<style type="text/css">
	.st0{clip-path:url(#SVGID_2_);}
</style>
<g>
	<defs>
		<rect id="SVGID_1_" x="9" y="9" width="781" height="780.9"/>
	</defs>
	<clipPath id="SVGID_2_">
		<use xlink:href="#SVGID_1_"  style="overflow:visible;"/>
	</clipPath>
	<g class="st0">
		<path d="M592.5,9h-57.7l80.4,140.8h166.4C757.2,68.5,681.8,9,592.5,9z M546.7,496.2c0-13.7-7.4-26.4-19.2-33.3l-192-110.9
			c-11.9-6.9-26.5-6.9-38.4,0c-11.9,6.8-19.2,19.5-19.2,33.3v221.7c0,13.7,7.3,26.4,19.2,33.3c5.9,3.5,12.5,5.2,19.2,5.2
			c6.6,0,13.3-1.7,19.3-5.2l192-110.9C539.4,522.7,546.7,510,546.7,496.2z M790,592.6C790,701.4,701.4,790,592.5,790h-386
			C97.6,790,9,701.4,9,592.6V226.7h781V592.6z M447.1,9H264.9l80.4,140.8h181.5L449.9,15.3C448.8,13.2,447.8,11.1,447.1,9z
			 M178.2,11.3c0.5,1.3,1,2.6,1.8,4l76.9,134.5H17.4C39.2,77.3,101.7,22.3,178.2,11.3"/>
	</g>
</g>
</svg>
