<?xml version="1.0" encoding="utf-8"?>
<!-- Generator: Adobe Illustrator 25.2.0, SVG Export Plug-In . SVG Version: 6.00 Build 0)  -->
<svg version="1.1" id="Layer_1" xmlns="http://www.w3.org/2000/svg" xmlns:xlink="http://www.w3.org/1999/xlink" x="0px" y="0px"
	 viewBox="0 0 800 800" style="enable-background:new 0 0 800 800;" xml:space="preserve">
<style type="text/css">
	.st0{clip-path:url(#SVGID_2_);}
</style>
<g id="SVGRepo_bgCarrier">
</g>
<g id="SVGRepo_tracerCarrier">
</g>
<g>
	<defs>
		<rect id="SVGID_1_" x="7" y="7" width="784.9" height="785"/>
	</defs>
	<clipPath id="SVGID_2_">
		<use xlink:href="#SVGID_1_"  style="overflow:visible;"/>
	</clipPath>
	<g class="st0">
		<path d="M578.2,7.1H220.8C103,7.1,7,102.9,7,220.8v357.4C7,696.2,103,792,220.8,792h357.4C696.1,792,792,696.2,792,578.3V220.8
			C792,102.9,696.1,7.1,578.2,7.1z M578.2,67.5C662,67.5,730,135,731.4,218.4H598.2L511.9,67.5H578.2z M442.4,67.5l86.2,150.9h-172
			L270.4,67.5H442.4z M202,69.4l85.1,149H67.7C68.9,141.4,127.2,78.7,202,69.4z M731.6,578.3c0,84.6-68.8,153.4-153.4,153.4H220.8
			c-84.6,0-153.4-68.8-153.4-153.4V278.7h664.2V578.3z M313.8,579.9V405.7c0-30.1,33.4-48,58.6-31.5l132,87
			c22.7,15,22.7,48.1,0,63.1l-132,87C347.2,627.9,313.8,610,313.8,579.9z"/>
	</g>
</g>
</svg>
