<?xml version="1.0" encoding="utf-8"?>
<!-- Generator: Adobe Illustrator 25.2.0, SVG Export Plug-In . SVG Version: 6.00 Build 0)  -->
<svg version="1.1" id="Layer_1" xmlns="http://www.w3.org/2000/svg" xmlns:xlink="http://www.w3.org/1999/xlink" x="0px" y="0px"
	 viewBox="0 0 800 800" style="enable-background:new 0 0 800 800;" xml:space="preserve">
<g id="SVGRepo_bgCarrier">
</g>
<g id="SVGRepo_tracerCarrier">
</g>
<g id="SVGRepo_iconCarrier">
	<path d="M700,732.8c-8.4,0-16.8-3.2-23.2-9.6L554,600.3c-53,42.7-118.4,65.9-187.4,65.9c-80-0.1-155.1-31.2-211.7-87.8
		c-56.6-56.6-87.7-131.8-87.7-211.7c0-80,31.2-155.2,87.7-211.8c56.6-56.6,131.8-87.7,211.8-87.7c80,0,155.1,31.2,211.7,87.7
		c56.6,56.6,87.7,131.8,87.7,211.8c0,68.9-23.1,134.3-65.7,187.2l122.8,122.9c12.8,12.8,12.8,33.6,0,46.4
		C716.8,729.6,708.4,732.8,700,732.8z M366.7,132.8c-129,0-233.9,104.9-233.9,233.9c0,128.9,104.9,233.8,233.8,233.9
		c129,0,233.9-104.9,233.9-233.9C600.5,237.7,495.6,132.8,366.7,132.8z"/>
</g>
</svg>
