<?xml version="1.0" encoding="utf-8"?>
<!-- Generator: Adobe Illustrator 25.2.0, SVG Export Plug-In . SVG Version: 6.00 Build 0)  -->
<svg version="1.1" id="Layer_1" xmlns="http://www.w3.org/2000/svg" xmlns:xlink="http://www.w3.org/1999/xlink" x="0px" y="0px"
	 viewBox="0 0 800 800" style="enable-background:new 0 0 800 800;" xml:space="preserve">
<g id="SVGRepo_bgCarrier">
</g>
<g id="SVGRepo_tracerCarrier">
</g>
<g id="SVGRepo_iconCarrier">
	<path d="M700,747.5c-12.2,0-24.3-4.6-33.6-13.9L552.8,619.9c-19.7,14.5-41.1,26.7-63.9,36.3c-38.8,16.4-79.9,24.7-122.3,24.7
		c-42.4,0-83.5-8.4-122.3-24.8c-37.4-15.8-71-38.5-99.8-67.3C115.7,560,93,526.4,77.2,489c-16.4-38.8-24.7-79.9-24.7-122.3
		c0-42.4,8.3-83.6,24.7-122.3c15.8-37.4,38.5-71,67.3-99.9c28.8-28.8,62.4-51.5,99.9-67.3c38.8-16.4,79.9-24.7,122.3-24.7
		c42.4,0,83.5,8.3,122.3,24.7c37.4,15.8,71,38.5,99.8,67.3c28.8,28.8,51.5,62.4,67.3,99.9c16.4,38.8,24.7,79.9,24.7,122.3
		c0,42.4-8.3,83.5-24.7,122.3c-9.6,22.7-21.7,44-36.2,63.6l113.7,113.8c18.5,18.6,18.5,48.6,0,67.2
		C724.3,742.9,712.2,747.5,700,747.5z M366.7,147.5c-120.9,0-219.2,98.3-219.2,219.2c0,120.8,98.3,219.1,219.1,219.2
		c120.8,0,219.2-98.3,219.2-219.2C585.8,245.8,487.5,147.5,366.7,147.5z"/>
</g>
</svg>
