<?xml version="1.0" encoding="utf-8"?>
<!-- Generator: Adobe Illustrator 25.2.0, SVG Export Plug-In . SVG Version: 6.00 Build 0)  -->
<svg version="1.1" id="Layer_1" xmlns="http://www.w3.org/2000/svg" xmlns:xlink="http://www.w3.org/1999/xlink" x="0px" y="0px"
	 viewBox="0 0 507 147" style="enable-background:new 0 0 507 147;" xml:space="preserve">
<style type="text/css">
	.st0{fill:#010101;}
</style>
<g>
	<g>
		<path class="st0" d="M65.07,42.95c-2.12,0-4.24-0.26-5.69-0.53c0-3.71-0.26-8.07-1.46-11.78c-1.32-3.84-4.76-8.21-9.93-8.21
			c-5.03,0-11.78,3.84-11.78,10.85c0,2.38,0.79,4.5,2.12,6.62c7.01,10.99,26.6,21.04,36.66,31.9c5.29,5.82,8.6,12.84,8.6,19.06
			c0,5.03-1.99,10.72-5.82,15.49c-7.94,9.79-20.65,14.29-33.35,14.29c-3.44,0-6.88-0.26-10.19-0.93c-11.65-2.25-19.46-8.87-19.46-18
			C14.77,89.54,25.89,82,33.96,82c3.18,0,4.5,1.19,4.5,2.38c0,0.53-0.26,1.19-0.79,1.72c-5.29,0.93-9.4,4.9-9.4,9.79
			c0,1.06,0.13,2.12,0.53,3.18c2.12,6.22,12.44,10.06,21.97,10.06c7.81,0,15.49-3.04,17.34-8.87c0.26-0.93,0.4-1.98,0.4-2.91
			c0-2.12-0.66-4.1-1.72-6.22c-3.97-7.81-14.16-15.88-22.37-21.31c-7.68-5.16-17.34-13.1-21.44-22.63
			c-1.19-2.91-1.99-5.96-1.99-9.13c0-3.97,1.06-7.94,3.31-11.65c5.16-8.47,15.49-12.18,24.88-12.18c10.19,0,25.02,6.75,25.02,18.53
			c0,2.12-0.4,4.5-1.59,6.88C71.29,42.29,68.11,42.95,65.07,42.95z"/>
		<path class="st0" d="M135.75,138.12c-2.65,3.44-8.21,5.56-14.03,5.56c-2.65,0-6.35-0.66-8.87-1.85c-3.71-1.72-7.41-5.69-7.41-9.79
			c0-2.65,2.12-5.16,5.29-7.68c4.37-3.31,10.99-6.49,17.21-9.66l1.19-16.15c0.66-9.79,0.66-20.65,1.19-26.47
			c-0.66,3.04-2.91,13.1-6.09,21.84c-2.65,7.28-6.09,14.56-9.93,18.79c-1.99,2.12-4.24,3.84-7.68,3.84
			c-7.28,0-16.54-6.62-17.87-18.53c-0.26-2.78-0.4-6.09-0.4-9.13c0-6.22,0.4-13.63,0.79-19.99c0.4-5.69,0.66-11.12,0.66-15.09v-3.97
			c0.53-0.13,1.19-0.13,1.85-0.13c5.69,0,13.1,4.63,14.03,12.31c0.13,1.59,0.26,3.18,0.26,4.9c0,4.1-0.4,8.47-0.93,12.44
			c-0.53,4.63-1.06,9.13-1.06,14.29c0,2.65,0.13,8.47,3.97,8.47c1.59,0,3.18-1.85,5.03-5.03c2.65-4.63,5.56-11.91,8.07-19.46
			c4.1-12.18,7.41-24.75,7.41-27.4c0-0.93,0.53-1.32,1.32-1.32c3.97,0,15.09,9.27,15.09,20.12c0,6.09,0,13.23-0.27,20.51
			c-0.13,5.82-0.4,10.46-0.93,16.28c5.96-4.24,11.38-9.27,13.24-13.1c2.25,0.66,3.44,3.31,3.44,5.82c0,2.25-0.66,4.63-1.99,6.35
			c-3.71,4.77-10.59,8.07-15.75,10.85C141.97,119.72,139.72,133.09,135.75,138.12z M127.27,123.56c-3.97,1.85-7.81,3.84-10.19,5.82
			c-1.46,1.19-2.38,2.38-2.38,3.71c0,1.85,1.85,2.78,3.84,2.78c2.51,0,5.69-1.46,7.15-4.76
			C126.35,129.64,126.88,127.13,127.27,123.56z"/>
		<path class="st0" d="M212.64,106.09c3.31-2.78,6.49-7.68,7.15-11.78c1.59,0.27,3.71,2.12,3.71,5.43c0,0.79-0.27,1.99-0.66,3.04
			c-1.32,3.71-4.37,8.07-8.21,10.99c-2.51,1.98-5.16,3.18-7.28,3.18c-3.71,0-13.24-1.85-16.68-12.44
			c-1.06-3.57-1.46-7.41-1.46-11.25c0-4.9,0.53-10.06,0.93-15.09c0.26-3.57,0.79-7.81,0.79-11.25c0-3.84-0.66-6.62-2.91-6.62
			c-1.19,0-2.91,1.99-4.77,5.29c-2.38,4.37-5.16,10.98-7.54,18c-4.5,12.57-8.34,26.6-8.34,30.57v0.93c0,1.32-0.66,1.85-1.59,1.85
			c-3.04,0-9.53-5.82-10.99-14.82c-0.4-2.25-0.53-4.5-0.53-6.75c0-4.23,0.53-10.98,1.06-16.94c0.53-7.28,1.19-14.96,1.19-20.65
			c0-2.78-0.13-5.03-0.4-6.88c0.66-0.13,1.46-0.26,2.25-0.26c3.97,0,8.34,2.65,10.46,7.54c0.79,1.72,0.93,4.9,0.93,8.34
			c0,7.28-1.32,15.75-1.32,20.38c0-0.13,0.13-0.26,0.13-0.53c0.66-2.51,2.91-11.12,6.22-19.19c2.78-6.75,5.69-12.97,8.34-14.82
			c1.99-1.46,4.24-2.12,6.62-2.12c6.49,0,13.5,4.9,15.22,10.46c0.66,2.25,0.93,5.16,0.93,8.34c0,4.76-0.53,10.19-0.93,14.96
			c-0.13,2.25-0.93,8.6-0.93,14.16c0,4.24,0.13,10.06,3.97,10.06C209.47,108.2,211.06,107.41,212.64,106.09z"/>
		<path class="st0" d="M236.33,116.28c-0.79,0.27-1.72,0.4-2.65,0.4c-3.31,0-7.41-1.85-10.85-5.82c-2.65-3.18-4.9-7.68-6.22-13.63
			c-0.79-3.71-1.19-7.68-1.19-11.65c0-9.79,2.52-20.12,8.21-28.19c3.71-5.29,9-7.81,15.75-7.81c2.91,0,5.69,0.53,8.21,1.59v-1.19
			c0-14.56,0.53-27.93,2.78-34.15c0.93-2.78,3.71-4.24,7.02-4.24s6.88,1.32,9.93,3.71c3.31,2.65,5.82,6.88,5.82,12.44
			c0,11.25-6.35,29.38-8.47,35.21c-0.4,5.96-0.79,11.91-0.79,18c0,2.91,0.13,5.82,0.26,8.73c0.53,9,1.99,14.96,4.1,16.15
			c0.79,0.4,1.46,0.66,2.25,0.66c2.25,0,4.24-1.85,5.96-4.1c1.85-2.52,3.31-5.82,3.84-8.21c1.59,0.27,3.57,1.85,3.57,5.16
			c0,0.66,0,1.59-0.26,2.38c-1.06,4.23-3.71,8.47-7.41,11.52c-3.18,2.65-7.15,4.37-11.25,4.37c-3.44,0-9.53-2.52-12.71-9
			c-1.46-3.04-2.65-10.32-3.04-12.97C246.26,102.51,241.23,114.42,236.33,116.28z M242.16,96.16c1.99-4.1,4.1-9.27,6.09-14.96
			c-0.26-5.03-0.53-13.9-0.66-23.56c-0.53-0.13-1.06-0.13-1.59-0.13c-1.85,0-4.1,0.66-6.35,2.78c-5.82,5.16-8.47,19.19-8.47,29.65
			c0,7.54,1.46,14.16,4.5,14.16C237.66,104.1,239.78,101.06,242.16,96.16z M262.28,42.95c1.19-4.1,2.25-8.87,2.25-11.91
			c0-1.85-0.27-4.9-2.91-4.9c-2.38,0.26-3.18,6.09-3.18,11.91c0,5.69,0.66,9.53,1.06,13.5C259.5,51.56,260.95,47.59,262.28,42.95z"
			/>
		<path class="st0" d="M277.36,90.6c0-6.35,0.66-13.37,1.19-20.52c0.66-7.41,1.59-15.09,1.59-22.76h1.06c3.71,0,9,1.85,11.91,8.07
			c1.19,2.65,1.59,5.69,1.59,9.13s-0.4,7.28-0.66,11.38c-0.53,6.75-1.32,13.5-1.32,20.65c0,3.97,0.13,7.54,1.59,9.4
			c0.66,0.93,1.72,1.32,3.04,1.32s3.18-1.19,4.5-2.51c3.44-3.18,6.09-8.74,6.49-10.59c1.59,0,3.57,2.25,3.57,4.5
			c0,2.12-0.93,5.16-2.25,7.54c-3.71,6.62-8.87,10.46-14.56,10.46c-8.21,0-13.76-5.03-15.75-10.85
			C277.49,100.26,277.36,95.63,277.36,90.6z M293.77,24.42c3.18,1.99,5.56,5.03,5.56,8.74s-3.84,5.43-7.41,5.43
			c-3.97,0-8.47-2.12-11.38-5.29c-1.72-1.99-2.65-4.1-2.65-5.96c0-1.19,0.4-2.25,1.06-3.18c1.19-1.59,3.44-2.51,6.49-2.51
			C288.08,21.64,291.13,22.7,293.77,24.42z"/>
		<path class="st0" d="M339.3,75.51c-2.65,0-5.69-1.59-7.28-2.91c1.85-2.38,2.78-6.88,2.78-10.72c0-3.04-0.66-5.82-2.78-6.49
			c-0.66-0.13-1.19-0.26-1.72-0.26c-6.49,0-10.32,12.18-10.32,24.75c0,9.93,2.38,20.25,7.54,24.88c2.38,2.12,5.29,3.04,8.47,3.04
			c3.31,0,6.75-1.06,9.66-3.04c5.03-3.44,9.13-9.53,10.59-16.94c2.38,0,4.63,1.59,4.63,5.43c0,4.1-2.12,10.46-7.81,15.88
			c-5.03,4.76-11.65,7.81-19.19,7.81c-8.47,0-17.74-4.24-23.03-11.38c-4.1-5.56-6.62-15.09-6.62-23.96c0-9,2.25-18.13,7.15-24.88
			c5.03-6.88,11.91-9.79,18.13-9.79c7.15,0,13.63,3.57,16.41,8.87c1.19,2.51,1.72,5.16,1.72,7.94
			C347.64,68.76,345.52,75.51,339.3,75.51z"/>
		<path class="st0" d="M409.19,108.2c4.76,0,10.19-9.4,11.38-13.9c1.46,0.4,3.31,2.12,3.31,5.56c0,0.93-0.13,1.85-0.4,2.91
			c-2.25,6.62-8.87,13.77-17.07,13.77c-3.18,0-7.68-1.72-10.46-3.84c-2.12-1.59-3.84-3.71-4.37-5.96c-1.19-5.29-1.59-8.6-1.59-11.91
			c0-1.72,0.13-3.44,0.26-5.56c0-0.53,0.13-1.06,0.13-1.59c-1.85,6.35-8.21,25.01-16.54,27.93c-1.19,0.4-2.38,0.53-3.44,0.53
			c-4.5,0-8.87-3.04-12.04-8.07c-3.57-5.56-5.96-13.63-6.22-22.1v-1.46c0-13.5,5.43-29.78,16.41-34.15
			c2.25-0.93,4.63-1.32,7.02-1.32c6.49,0,12.84,3.18,16.81,8.87c0.26-1.46,0.4-2.78,0.53-4.76c0.13-1.32,1.06-1.99,2.51-1.99
			c4.1,0,11.52,4.77,11.65,10.59c0,1.32-0.26,4.63-0.66,8.6c-0.79,7.54-1.72,17.74-1.72,25.41c0,6.22,0.66,10.99,2.65,11.91
			C408,107.94,408.52,108.2,409.19,108.2z M379.67,97.75c4.24-7.28,8.47-19.46,10.85-30.18c-0.4-4.24-3.84-10.19-8.21-10.19
			c-1.46,0-3.04,0.66-4.63,2.25c-5.43,5.69-8.6,20.91-8.6,31.77c0,6.75,1.85,13.1,3.84,13.1S377.29,101.85,379.67,97.75z"/>
		<path class="st0" d="M419.51,103.97c-0.93-2.65-1.19-7.41-1.19-14.16c0-7.94,0.4-18.27,0.93-28.85c0-1.46,0.13-3.71,0.26-5.43
			c-4.63-0.13-8.21-0.4-8.87-0.4c0,0-0.53-1.72-0.53-3.31c0-1.06,0.26-1.99,1.06-2.25c1.85-0.53,4.9-0.79,8.47-0.93
			c0.13-3.57,0.13-6.49,0.13-10.85c0-6.35,0-10.19,1.32-14.29c0.79-0.79,1.99-1.19,3.31-1.19c3.84,0,8.74,3.71,10.85,12.57
			c0.26,1.06,0.4,3.44,0.4,7.01c0,1.99,0,4.1-0.13,6.49c2.51,0,4.76,0.13,6.88,0.13c2.51,0,4.63-0.13,6.09-0.4
			c0.26,0.66,0.4,1.46,0.4,2.12c0,2.12-1.59,3.71-6.09,4.5c-1.99,0.4-4.76,0.66-7.81,0.79c-0.26,2.65-0.66,5.43-1.19,8.07
			c-1.19,10.59-1.85,19.72-1.85,27.27c0,8.6,1.06,14.96,3.44,16.81c0.93,0.79,1.99,1.06,3.18,1.06c5.29,0,11.91-7.15,13.24-14.82
			c1.46,0.13,3.71,1.85,3.71,5.56c0,1.06-0.13,2.38-0.79,4.1c-3.31,8.87-10.72,13.1-18.79,13.1
			C426.39,116.67,421.89,110.85,419.51,103.97z"/>
		<path class="st0" d="M462.92,81.87c0,8.47,1.59,16.68,6.09,21.31c3.04,3.31,6.62,4.77,10.06,4.77c4.5,0,9.13-2.25,12.84-5.96
			c3.71-3.71,6.49-8.87,7.41-14.43c2.51,0,4.37,2.65,4.37,6.09c0,0.53,0,1.06-0.13,1.59c-0.93,5.16-3.57,9.66-7.41,13.24
			c-5.43,5.03-12.84,8.07-20.78,8.07c-7.81,0-16.41-2.65-22.37-10.19c-4.76-5.96-6.88-14.82-6.88-23.96
			c0-9.26,2.25-18.79,7.01-25.68c4.76-7.01,11.65-9.79,18.26-9.79c7.94,0,15.62,3.97,18,9.27c1.06,2.12,1.46,4.24,1.46,6.35
			c0,4.76-2.51,9.13-7.15,12.84C478.01,79.88,470.07,81.87,462.92,81.87z M463.19,75.64c3.31-0.66,6.35-1.72,9.66-3.84
			c3.97-2.78,6.09-7.54,6.09-11.12c0-3.71-2.38-7.15-5.16-7.15C468.61,53.54,464.38,65.06,463.19,75.64z"/>
	</g>
</g>
</svg>
